<svg xmlns="http://www.w3.org/2000/svg" xmlns:xlink="http://www.w3.org/1999/xlink" width="96" height="20" viewBox="0 0 96 20"><defs><path id="jbvva" d="M81.35 35.38a10.5 10.5 0 0 1 4.18-.86c1.63 0 2.9.5 3.79 1.49.8.86 1.2 1.94 1.2 3.24v6.79a1.08 1.08 0 0 1-1.1 1.08c-.3 0-.56-.1-.77-.31-.21-.21-.31-.47-.31-.77v-.62a5.91 5.91 0 0 1-4.51 1.82c-1.11 0-2.03-.32-2.77-.96a3.34 3.34 0 0 1-1.15-2.64c0-1.18.45-2.11 1.35-2.78.97-.74 2.36-1.1 4.17-1.1h2.9v-.2c0-1.07-.26-1.84-.79-2.3-.52-.45-1.33-.68-2.42-.68-.93 0-2 .2-3.2.58-.12.03-.26.05-.42.05-.16 0-.33-.09-.5-.25-.18-.17-.27-.43-.27-.78 0-.36.2-.62.62-.8zm.75 8.02c0 1.28.84 1.92 2.54 1.92.75 0 1.45-.18 2.1-.55a6.3 6.3 0 0 0 1.6-1.25V41.5h-2.62c-1.14 0-2.02.15-2.66.44a1.5 1.5 0 0 0-.96 1.46zm33.62-8.11c.13-.43.47-.65 1.03-.65.27 0 .51.1.72.31.2.21.31.42.31.64 0 .21-.02.4-.07.54l-3.4 9.98a1.55 1.55 0 0 1-1.4 1.01c-.32 0-.6-.1-.86-.3a1.7 1.7 0 0 1-.55-.73l-2.55-7.95-2.54 7.95c-.11.29-.3.53-.55.73-.26.2-.55.3-.87.3a1.54 1.54 0 0 1-1.4-1l-3.4-10a1.73 1.73 0 0 1-.07-.53c0-.22.1-.43.31-.64.2-.2.45-.31.72-.31.56 0 .9.22 1.03.65l2.81 9.24 2.79-9.03c.08-.25.22-.46.44-.62.22-.16.46-.24.73-.24.27 0 .52.08.73.24.22.16.37.37.45.62l2.78 9.03zm12.2.1a10.5 10.5 0 0 1 4.17-.87c1.63 0 2.9.5 3.79 1.49.8.86 1.2 1.94 1.2 3.24v6.79a1.08 1.08 0 0 1-1.1 1.08c-.3 0-.56-.1-.77-.31-.21-.21-.31-.47-.31-.77v-.62a5.91 5.91 0 0 1-4.51 1.82c-1.11 0-2.03-.32-2.77-.96a3.34 3.34 0 0 1-1.15-2.64c0-1.18.45-2.11 1.35-2.78.97-.74 2.36-1.1 4.17-1.1h2.9v-.2c0-1.07-.26-1.84-.79-2.3-.52-.45-1.33-.68-2.42-.68-.93 0-2 .2-3.2.58-.12.03-.26.05-.42.05-.16 0-.33-.09-.5-.25-.18-.17-.27-.43-.27-.78 0-.36.2-.62.62-.8zm.74 8.01c0 1.28.84 1.92 2.54 1.92.75 0 1.45-.18 2.1-.55a6.3 6.3 0 0 0 1.6-1.25V41.5h-2.62c-1.14 0-2.02.15-2.66.44a1.5 1.5 0 0 0-.96 1.46zm21.5-6.62c1.12-1.5 2.38-2.26 3.77-2.26h.12c.3 0 .55.1.75.31.2.21.3.47.3.78 0 .31-.1.56-.3.75-.22.18-.48.27-.8.27h-.12a4 4 0 0 0-2.15.59c-.63.4-1.15.9-1.57 1.52v7.3a1.08 1.08 0 0 1-1.1 1.08c-.3 0-.57-.1-.77-.31-.21-.21-.31-.47-.31-.77v-10.3c0-.3.1-.56.3-.78.21-.21.47-.32.78-.32.3 0 .56.1.78.32.21.22.32.48.32.78zm15.8 4.87a4.05 4.05 0 0 0 1.22 2.59c.68.64 1.64.96 2.88.96 1.23 0 2.26-.2 3.1-.62.28-.15.53-.22.74-.22.2 0 .4.09.6.26.19.18.28.38.28.6 0 .42-.17.72-.51.9-.35.19-.66.34-.93.47-.27.13-.57.24-.88.34-.72.2-1.56.31-2.5.31-1.97 0-3.5-.55-4.58-1.66-1.1-1.1-1.64-2.67-1.64-4.7 0-1.76.46-3.22 1.37-4.4a5.22 5.22 0 0 1 4.37-1.96c1.8 0 3.2.6 4.25 1.82a6.26 6.26 0 0 1 1.46 4.23c0 .3-.1.56-.3.77-.2.2-.47.3-.8.3zm5.82-4.47a3.44 3.44 0 0 0-2.3-.81c-1.43 0-2.47.63-3.12 1.9-.24.44-.38.98-.4 1.6h7.07a3.64 3.64 0 0 0-1.25-2.69zM109 28a2 2 0 1 1 0 4 2 2 0 0 1 0-4z"/></defs><g><g transform="translate(-80 -28)"><use fill="#1f4ba5" xlink:href="#jbvva"/></g></g></svg>