<svg xmlns="http://www.w3.org/2000/svg" xmlns:xlink="http://www.w3.org/1999/xlink" width="12" height="10" viewBox="0 0 12 10"><defs><path id="qrrja" d="M379.7 287.3l-2-2a1 1 0 0 0-1.4 0l-2 2a1 1 0 0 0 .7 1.7 1 1 0 0 0 .7-.3l.3-.29V294a1 1 0 0 0 2 0v-5.59l.3.3a1 1 0 1 0 1.4-1.42zM372 286a1 1 0 0 0-2 0v5.59l-.3-.3a1 1 0 0 0-1.7.7 1 1 0 0 0 .3.72l2 2a1 1 0 0 0 1.4 0l2-2a1 1 0 1 0-1.4-1.42l-.3.3z"/></defs><g><g transform="translate(-368 -285)"><use fill="#979797" xlink:href="#qrrja"/><use fill="#d5d5d5" xlink:href="#qrrja"/></g></g></svg>