<svg xmlns="http://www.w3.org/2000/svg" xmlns:xlink="http://www.w3.org/1999/xlink" width="14" height="15" viewBox="0 0 14 15"><defs><path id="p0zea" d="M578 1707a1 1 0 0 1-1-1c0-1.44-.62-2.72-1.59-3.64-.9 1.01-2.09 1.64-3.41 1.64a4.57 4.57 0 0 1-3.41-1.64 4.97 4.97 0 0 0-1.6 3.64 1 1 0 0 1-1.99 0c0-2.16 1-4.07 2.53-5.35-.33-.8-.53-1.7-.53-2.65 0-3.31 2.24-6 5-6s5 2.69 5 6c0 .96-.2 1.85-.54 2.65A6.95 6.95 0 0 1 579 1706a1 1 0 0 1-1 1zm-6-13c-1.66 0-3 1.79-3 4 0 2.2 1.34 4 3 4s3-1.8 3-4c0-2.21-1.34-4-3-4z"/></defs><g><g opacity=".2" transform="translate(-565 -1692)"><use xlink:href="#p0zea"/></g></g></svg>